<mxfile host="app.diagrams.net" modified="2023-07-26T07:32:16.910Z" agent="Mozilla/5.0 (Windows NT 10.0; Win64; x64) AppleWebKit/537.36 (KHTML, like Gecko) Chrome/115.0.0.0 Safari/537.36 Edg/115.0.1901.183" etag="pVRp6IN6jKRJyJI08nXb" version="21.6.5" type="device">
  <diagram id="_0ZhRCE1uoOgWECceBR4" name="Page-1">
    <mxGraphModel dx="2074" dy="1148" grid="1" gridSize="10" guides="1" tooltips="1" connect="1" arrows="1" fold="1" page="1" pageScale="1" pageWidth="850" pageHeight="1100" math="0" shadow="0">
      <root>
        <mxCell id="0" />
        <mxCell id="1" parent="0" />
        <mxCell id="qbZ0Apftlpy-pH_90XMW-6" value="&lt;p style=&quot;margin: 0px ; margin-top: 4px ; text-align: center&quot;&gt;&lt;b&gt;Transport Kompas&lt;/b&gt;&lt;/p&gt;&lt;hr size=&quot;1&quot;&gt;&lt;div style=&quot;height: 2px&quot;&gt;&lt;/div&gt;" style="verticalAlign=top;align=left;overflow=fill;fontSize=12;fontFamily=Helvetica;html=1;" parent="1" vertex="1">
          <mxGeometry x="50" y="40" width="1000" height="490" as="geometry" />
        </mxCell>
        <mxCell id="qbZ0Apftlpy-pH_90XMW-44" value="" style="group" parent="1" vertex="1" connectable="0">
          <mxGeometry x="80" y="90" width="620" height="340" as="geometry" />
        </mxCell>
        <mxCell id="qbZ0Apftlpy-pH_90XMW-7" value="&lt;p style=&quot;margin: 0px ; margin-top: 4px ; text-align: center&quot;&gt;&lt;b&gt;Data objects&lt;/b&gt;&lt;/p&gt;&lt;hr size=&quot;1&quot;&gt;&lt;div style=&quot;height: 2px&quot;&gt;&lt;/div&gt;" style="verticalAlign=top;align=left;overflow=fill;fontSize=12;fontFamily=Helvetica;html=1;" parent="qbZ0Apftlpy-pH_90XMW-44" vertex="1">
          <mxGeometry width="440" height="340" as="geometry" />
        </mxCell>
        <mxCell id="qbZ0Apftlpy-pH_90XMW-8" value="&lt;font style=&quot;font-size: 12px&quot;&gt;AbstractStrategy&lt;/font&gt;" style="html=1;" parent="qbZ0Apftlpy-pH_90XMW-44" vertex="1">
          <mxGeometry x="100" y="50" width="110" height="50" as="geometry" />
        </mxCell>
        <mxCell id="qbZ0Apftlpy-pH_90XMW-9" value="Strategy 1" style="html=1;" parent="qbZ0Apftlpy-pH_90XMW-44" vertex="1">
          <mxGeometry x="20" y="130" width="110" height="50" as="geometry" />
        </mxCell>
        <mxCell id="qbZ0Apftlpy-pH_90XMW-10" value="Strategy 2" style="html=1;" parent="qbZ0Apftlpy-pH_90XMW-44" vertex="1">
          <mxGeometry x="180" y="130" width="110" height="50" as="geometry" />
        </mxCell>
        <mxCell id="qbZ0Apftlpy-pH_90XMW-11" value="Strategy 3" style="html=1;" parent="qbZ0Apftlpy-pH_90XMW-44" vertex="1">
          <mxGeometry x="20" y="210" width="110" height="50" as="geometry" />
        </mxCell>
        <mxCell id="qbZ0Apftlpy-pH_90XMW-14" value="" style="edgeStyle=orthogonalEdgeStyle;rounded=0;orthogonalLoop=1;jettySize=auto;html=1;entryX=1;entryY=0.5;entryDx=0;entryDy=0;" parent="qbZ0Apftlpy-pH_90XMW-44" source="qbZ0Apftlpy-pH_90XMW-8" target="qbZ0Apftlpy-pH_90XMW-11" edge="1">
          <mxGeometry relative="1" as="geometry">
            <Array as="points">
              <mxPoint x="155" y="235" />
            </Array>
          </mxGeometry>
        </mxCell>
        <mxCell id="qbZ0Apftlpy-pH_90XMW-12" value="Strategy 4" style="html=1;" parent="qbZ0Apftlpy-pH_90XMW-44" vertex="1">
          <mxGeometry x="180" y="210" width="110" height="50" as="geometry" />
        </mxCell>
        <mxCell id="qbZ0Apftlpy-pH_90XMW-13" value="Strategy 5" style="html=1;" parent="qbZ0Apftlpy-pH_90XMW-44" vertex="1">
          <mxGeometry x="100" y="280" width="110" height="50" as="geometry" />
        </mxCell>
        <mxCell id="qbZ0Apftlpy-pH_90XMW-15" value="" style="edgeStyle=orthogonalEdgeStyle;rounded=0;orthogonalLoop=1;jettySize=auto;html=1;entryX=0;entryY=0.5;entryDx=0;entryDy=0;" parent="qbZ0Apftlpy-pH_90XMW-44" target="qbZ0Apftlpy-pH_90XMW-12" edge="1">
          <mxGeometry relative="1" as="geometry">
            <mxPoint x="155" y="100" as="sourcePoint" />
            <mxPoint x="130" y="235" as="targetPoint" />
            <Array as="points">
              <mxPoint x="155" y="235" />
            </Array>
          </mxGeometry>
        </mxCell>
        <mxCell id="qbZ0Apftlpy-pH_90XMW-19" value="" style="endArrow=classic;html=1;entryX=0;entryY=0.5;entryDx=0;entryDy=0;exitX=0;exitY=0.5;exitDx=0;exitDy=0;" parent="qbZ0Apftlpy-pH_90XMW-44" edge="1">
          <mxGeometry width="50" height="50" relative="1" as="geometry">
            <mxPoint x="155" y="155" as="sourcePoint" />
            <mxPoint x="130" y="155" as="targetPoint" />
          </mxGeometry>
        </mxCell>
        <mxCell id="qbZ0Apftlpy-pH_90XMW-20" value="" style="endArrow=classic;html=1;entryX=0;entryY=0.5;entryDx=0;entryDy=0;" parent="qbZ0Apftlpy-pH_90XMW-44" edge="1">
          <mxGeometry width="50" height="50" relative="1" as="geometry">
            <mxPoint x="155" y="155" as="sourcePoint" />
            <mxPoint x="180" y="155" as="targetPoint" />
          </mxGeometry>
        </mxCell>
        <mxCell id="qbZ0Apftlpy-pH_90XMW-22" value="" style="endArrow=classic;html=1;entryX=0.5;entryY=0;entryDx=0;entryDy=0;" parent="qbZ0Apftlpy-pH_90XMW-44" target="qbZ0Apftlpy-pH_90XMW-13" edge="1">
          <mxGeometry width="50" height="50" relative="1" as="geometry">
            <mxPoint x="155" y="230" as="sourcePoint" />
            <mxPoint x="120" y="440" as="targetPoint" />
          </mxGeometry>
        </mxCell>
        <mxCell id="qbZ0Apftlpy-pH_90XMW-23" value="Scenario" style="html=1;" parent="qbZ0Apftlpy-pH_90XMW-44" vertex="1">
          <mxGeometry x="310" y="130" width="110" height="50" as="geometry" />
        </mxCell>
        <mxCell id="qbZ0Apftlpy-pH_90XMW-24" value="ScenarioYear" style="html=1;" parent="qbZ0Apftlpy-pH_90XMW-44" vertex="1">
          <mxGeometry x="310" y="280" width="110" height="50" as="geometry" />
        </mxCell>
        <mxCell id="qbZ0Apftlpy-pH_90XMW-25" value="" style="edgeStyle=orthogonalEdgeStyle;rounded=0;orthogonalLoop=1;jettySize=auto;html=1;startSize=0;" parent="qbZ0Apftlpy-pH_90XMW-44" source="qbZ0Apftlpy-pH_90XMW-23" target="qbZ0Apftlpy-pH_90XMW-24" edge="1">
          <mxGeometry relative="1" as="geometry" />
        </mxCell>
        <mxCell id="qbZ0Apftlpy-pH_90XMW-26" value="&lt;font style=&quot;font-size: 12px&quot;&gt;contains&lt;/font&gt;" style="text;html=1;align=center;verticalAlign=middle;resizable=0;points=[];autosize=1;" parent="qbZ0Apftlpy-pH_90XMW-44" vertex="1">
          <mxGeometry x="370" y="225" width="60" height="20" as="geometry" />
        </mxCell>
        <mxCell id="qbZ0Apftlpy-pH_90XMW-27" value="Vehicle" style="html=1;" parent="qbZ0Apftlpy-pH_90XMW-44" vertex="1">
          <mxGeometry x="310" y="50" width="110" height="50" as="geometry" />
        </mxCell>
        <mxCell id="qbZ0Apftlpy-pH_90XMW-45" value="" style="group" parent="1" vertex="1" connectable="0">
          <mxGeometry x="880" y="390" width="150" height="120" as="geometry" />
        </mxCell>
        <mxCell id="qbZ0Apftlpy-pH_90XMW-42" value="&lt;p style=&quot;margin: 0px ; margin-top: 4px ; text-align: center&quot;&gt;&lt;b&gt;Helpers&lt;/b&gt;&lt;/p&gt;&lt;hr size=&quot;1&quot;&gt;&lt;div style=&quot;height: 2px&quot;&gt;&lt;/div&gt;" style="verticalAlign=top;align=left;overflow=fill;fontSize=12;fontFamily=Helvetica;html=1;" parent="qbZ0Apftlpy-pH_90XMW-45" vertex="1">
          <mxGeometry width="150" height="120" as="geometry" />
        </mxCell>
        <mxCell id="qbZ0Apftlpy-pH_90XMW-43" value="&lt;font style=&quot;font-size: 12px&quot;&gt;GraphHelper&lt;/font&gt;" style="html=1;" parent="qbZ0Apftlpy-pH_90XMW-45" vertex="1">
          <mxGeometry x="20" y="40" width="110" height="50" as="geometry" />
        </mxCell>
        <mxCell id="qbZ0Apftlpy-pH_90XMW-46" value="" style="group" parent="1" vertex="1" connectable="0">
          <mxGeometry x="530" y="90" width="340" height="280" as="geometry" />
        </mxCell>
        <mxCell id="qbZ0Apftlpy-pH_90XMW-29" value="&lt;p style=&quot;margin: 0px ; margin-top: 4px ; text-align: center&quot;&gt;&lt;b&gt;Excel interfaces&lt;/b&gt;&lt;/p&gt;&lt;hr size=&quot;1&quot;&gt;&lt;div style=&quot;height: 2px&quot;&gt;&lt;/div&gt;" style="verticalAlign=top;align=left;overflow=fill;fontSize=12;fontFamily=Helvetica;html=1;" parent="qbZ0Apftlpy-pH_90XMW-46" vertex="1">
          <mxGeometry width="340" height="280" as="geometry" />
        </mxCell>
        <mxCell id="qbZ0Apftlpy-pH_90XMW-31" value="&lt;font style=&quot;font-size: 12px&quot;&gt;AbstractStrategy&lt;/font&gt;" style="html=1;" parent="qbZ0Apftlpy-pH_90XMW-46" vertex="1">
          <mxGeometry x="117.45454545454545" y="50" width="113.33333333333333" height="50" as="geometry" />
        </mxCell>
        <mxCell id="qbZ0Apftlpy-pH_90XMW-34" value="FleetInterface" style="html=1;" parent="qbZ0Apftlpy-pH_90XMW-46" vertex="1">
          <mxGeometry x="30.909090909090907" y="124" width="113.33333333333333" height="50" as="geometry" />
        </mxCell>
        <mxCell id="qbZ0Apftlpy-pH_90XMW-35" value="ScenariosInterface" style="html=1;" parent="qbZ0Apftlpy-pH_90XMW-46" vertex="1">
          <mxGeometry x="199.87878787878788" y="121" width="113.33333333333333" height="50" as="geometry" />
        </mxCell>
        <mxCell id="qbZ0Apftlpy-pH_90XMW-36" value="PANTEIAInterface" style="html=1;" parent="qbZ0Apftlpy-pH_90XMW-46" vertex="1">
          <mxGeometry x="117.45454545454545" y="190" width="113.33333333333333" height="50" as="geometry" />
        </mxCell>
        <mxCell id="qbZ0Apftlpy-pH_90XMW-37" value="" style="edgeStyle=orthogonalEdgeStyle;rounded=0;orthogonalLoop=1;jettySize=auto;html=1;entryX=0;entryY=0.5;entryDx=0;entryDy=0;" parent="qbZ0Apftlpy-pH_90XMW-46" target="qbZ0Apftlpy-pH_90XMW-35" edge="1">
          <mxGeometry relative="1" as="geometry">
            <mxPoint x="174.12121212121212" y="100" as="sourcePoint" />
            <mxPoint x="148.36363636363637" y="235" as="targetPoint" />
            <Array as="points">
              <mxPoint x="174.12121212121212" y="150" />
              <mxPoint x="199.87878787878788" y="150" />
            </Array>
          </mxGeometry>
        </mxCell>
        <mxCell id="qbZ0Apftlpy-pH_90XMW-40" value="" style="endArrow=classic;html=1;entryX=0.5;entryY=0;entryDx=0;entryDy=0;" parent="qbZ0Apftlpy-pH_90XMW-46" target="qbZ0Apftlpy-pH_90XMW-36" edge="1">
          <mxGeometry width="50" height="50" relative="1" as="geometry">
            <mxPoint x="174.12121212121212" y="140" as="sourcePoint" />
            <mxPoint x="138.06060606060606" y="350" as="targetPoint" />
          </mxGeometry>
        </mxCell>
        <mxCell id="qbZ0Apftlpy-pH_90XMW-41" value="" style="edgeStyle=orthogonalEdgeStyle;rounded=0;orthogonalLoop=1;jettySize=auto;html=1;entryX=1;entryY=0.5;entryDx=0;entryDy=0;exitX=0.5;exitY=1;exitDx=0;exitDy=0;" parent="qbZ0Apftlpy-pH_90XMW-46" source="qbZ0Apftlpy-pH_90XMW-31" target="qbZ0Apftlpy-pH_90XMW-34" edge="1">
          <mxGeometry relative="1" as="geometry">
            <mxPoint x="184.4242424242424" y="110" as="sourcePoint" />
            <mxPoint x="210.1818181818182" y="160" as="targetPoint" />
            <Array as="points">
              <mxPoint x="174.12121212121212" y="150" />
            </Array>
          </mxGeometry>
        </mxCell>
        <mxCell id="qbZ0Apftlpy-pH_90XMW-47" value="&lt;font style=&quot;font-size: 12px&quot;&gt;Logger&lt;/font&gt;" style="html=1;" parent="1" vertex="1">
          <mxGeometry x="90" y="460" width="110" height="50" as="geometry" />
        </mxCell>
        <mxCell id="qbZ0Apftlpy-pH_90XMW-48" value="&lt;font style=&quot;font-size: 12px&quot;&gt;TCOModel&lt;/font&gt;" style="html=1;" parent="1" vertex="1">
          <mxGeometry x="220" y="460" width="110" height="50" as="geometry" />
        </mxCell>
        <mxCell id="qbZ0Apftlpy-pH_90XMW-49" value="&lt;font style=&quot;font-size: 12px&quot;&gt;app.py&lt;/font&gt;" style="html=1;" parent="1" vertex="1">
          <mxGeometry x="350" y="460" width="110" height="50" as="geometry" />
        </mxCell>
        <mxCell id="qbZ0Apftlpy-pH_90XMW-50" value="&lt;font style=&quot;font-size: 12px&quot;&gt;exceptions.py&lt;/font&gt;" style="html=1;" parent="1" vertex="1">
          <mxGeometry x="480" y="460" width="110" height="50" as="geometry" />
        </mxCell>
        <mxCell id="qbZ0Apftlpy-pH_90XMW-51" value="&lt;font style=&quot;font-size: 12px&quot;&gt;utility_functions.py&lt;/font&gt;" style="html=1;" parent="1" vertex="1">
          <mxGeometry x="610" y="460" width="110" height="50" as="geometry" />
        </mxCell>
        <mxCell id="GxFmV37_0x8vQinwPww9-1" value="&lt;font style=&quot;font-size: 12px&quot;&gt;request_functions.py&lt;/font&gt;" style="html=1;" parent="1" vertex="1">
          <mxGeometry x="740" y="460" width="120" height="50" as="geometry" />
        </mxCell>
        <mxCell id="3OlyRL00FrpReaQawNTy-11" value="&lt;p style=&quot;margin: 0px ; margin-top: 4px ; text-align: center&quot;&gt;&lt;b&gt;Excel interfaces&lt;/b&gt;&lt;/p&gt;&lt;hr size=&quot;1&quot;&gt;&lt;div style=&quot;height: 2px&quot;&gt;&lt;/div&gt;" style="verticalAlign=top;align=left;overflow=fill;fontSize=12;fontFamily=Helvetica;html=1;" vertex="1" parent="1">
          <mxGeometry x="880" y="90" width="150" height="280" as="geometry" />
        </mxCell>
        <mxCell id="3OlyRL00FrpReaQawNTy-21" style="edgeStyle=orthogonalEdgeStyle;rounded=0;orthogonalLoop=1;jettySize=auto;html=1;" edge="1" parent="1" source="3OlyRL00FrpReaQawNTy-19" target="3OlyRL00FrpReaQawNTy-20">
          <mxGeometry relative="1" as="geometry" />
        </mxCell>
        <mxCell id="3OlyRL00FrpReaQawNTy-19" value="&lt;font style=&quot;font-size: 12px&quot;&gt;AbstractDatabase&lt;br&gt;Interface&lt;/font&gt;" style="html=1;" vertex="1" parent="1">
          <mxGeometry x="900" y="140" width="110" height="50" as="geometry" />
        </mxCell>
        <mxCell id="3OlyRL00FrpReaQawNTy-20" value="&lt;font style=&quot;font-size: 12px&quot;&gt;ScenarioDatabase&lt;br&gt;Interface&lt;br&gt;&lt;/font&gt;" style="html=1;" vertex="1" parent="1">
          <mxGeometry x="900" y="280" width="110" height="50" as="geometry" />
        </mxCell>
      </root>
    </mxGraphModel>
  </diagram>
</mxfile>
